<?xml version="1.0" standalone="no"?>
<!DOCTYPE svg PUBLIC "-//W3C//DTD SVG 20010904//EN"
 "http://www.w3.org/TR/2001/REC-SVG-20010904/DTD/svg10.dtd">
<svg version="1.0" xmlns="http://www.w3.org/2000/svg"
 width="200.000000pt" height="196.000000pt" viewBox="0 0 200.000000 196.000000"
 preserveAspectRatio="xMidYMid meet">

<g transform="translate(0.000000,196.000000) scale(0.100000,-0.100000)"
fill="#000000" stroke="none">
<path d="M875 1823 c-219 -29 -442 -159 -574 -333 -72 -96 -99 -146 -134 -251
-81 -244 -47 -508 98 -739 15 -25 69 -85 119 -135 105 -103 192 -157 336 -207
92 -32 100 -33 260 -33 191 0 242 11 387 80 87 42 215 135 258 186 167 200
236 397 222 632 -14 224 -96 400 -261 562 -126 123 -315 218 -461 231 -38 3
-29 0 35 -15 401 -89 680 -431 680 -832 0 -373 -249 -699 -620 -811 -85 -26
-274 -35 -377 -18 -142 22 -301 96 -416 193 -121 101 -226 270 -268 432 -27
103 -30 288 -5 389 93 384 399 637 806 665 110 8 111 8 30 8 -47 0 -98 -2
-115 -4z"/>
<path d="M879 1574 c-311 -54 -528 -310 -529 -621 0 -104 14 -170 55 -260 85
-185 241 -312 443 -359 80 -19 250 -14 325 10 111 35 180 78 267 165 65 65 94
104 122 161 85 175 88 372 9 542 -38 84 -69 121 -35 43 21 -46 28 -82 32 -156
9 -177 -38 -301 -156 -416 l-47 -46 -3 138 -3 138 39 32 c77 66 135 229 113
313 -18 65 -119 191 -185 231 -135 81 -294 111 -447 85z m343 -79 c4 -19 1
-25 -11 -25 -26 0 -41 -21 -41 -55 0 -40 16 -55 57 -55 27 0 37 6 53 33 13 21
20 26 20 15 0 -29 -37 -58 -74 -58 -19 0 -41 -3 -50 -6 -19 -7 -21 -40 -3 -47
6 -3 1 -6 -13 -7 -14 -1 -19 -4 -12 -7 8 -3 11 -29 10 -86 l-2 -82 -5 75 c-3
41 -10 75 -16 75 -6 0 -12 -40 -15 -90 l-4 -90 -6 88 c-3 48 -9 87 -15 87 -6
0 -11 -40 -13 -95 -1 -52 -6 -95 -10 -95 -4 0 -8 44 -10 97 -2 54 -5 99 -7
102 -2 2 -11 1 -20 -2 -12 -5 -15 -29 -17 -129 l-2 -123 -6 125 c-4 102 -8
125 -20 125 -12 0 -15 -22 -18 -123 -3 -160 -22 -153 -22 9 0 109 -2 120 -17
117 -15 -3 -19 -19 -24 -103 l-5 -100 -2 97 c-2 88 -11 124 -26 99 -3 -5 -6
-43 -7 -85 -1 -42 -5 -76 -9 -76 -4 0 -7 12 -8 28 -1 112 -3 142 -12 142 -5 0
-11 -26 -13 -57 -3 -53 -4 -53 -3 10 1 50 -2 67 -13 67 -11 0 -10 5 3 24 14
23 14 25 -2 29 -9 3 68 5 172 6 l188 1 -6 23 c-3 12 -6 28 -6 35 0 18 -17 15
-58 -13 -29 -20 -49 -25 -100 -25 -61 0 -131 24 -147 50 -10 17 -25 11 -25
-10 0 -11 -9 -29 -20 -40 -40 -40 -121 -14 -119 38 1 21 2 22 6 7 13 -51 68
-72 105 -38 35 31 10 93 -37 93 -17 0 -21 5 -19 23 1 12 3 23 3 25 1 1 106 2
235 2 l234 0 4 -25z m67 -59 c-3 -3 -11 5 -18 17 -13 21 -12 21 5 5 10 -10 16
-20 13 -22z m-501 -17 c3 -28 -16 -43 -43 -33 -15 6 -21 45 -8 58 16 16 48 1
51 -25z m466 9 c8 -14 7 -21 -6 -34 -30 -30 -75 9 -48 42 16 18 39 15 54 -8z
m-346 -448 l92 -51 108 65 c59 36 111 66 115 66 4 0 8 -111 9 -247 l2 -248 6
224 c4 167 8 225 18 229 8 2 12 -7 12 -28 0 -28 2 -30 20 -20 17 9 20 8 20 -9
0 -14 5 -18 20 -14 20 5 20 2 18 -238 l-3 -244 -152 0 c-129 0 -150 2 -140 14
10 12 8 12 -12 2 -15 -9 -87 -15 -207 -18 l-184 -6 0 248 c0 219 2 246 15 235
13 -11 15 -8 15 14 0 23 3 26 20 21 16 -5 20 -2 20 14 0 12 6 21 14 21 8 0 13
9 12 23 -3 35 4 39 37 18 18 -10 74 -42 125 -71z m-303 -9 c16 -9 29 -20 28
-24 -2 -4 -3 -59 -3 -122 l0 -116 -30 16 c-64 33 -131 8 -143 -55 -3 -15 -5
-8 -6 20 -2 65 -26 171 -50 221 -12 23 -21 44 -21 46 0 1 10 8 23 14 57 32
148 32 202 0z m-4 -268 c13 -16 12 -17 -3 -4 -10 7 -18 15 -18 17 0 8 8 3 21
-13z m-16 -13 c3 -6 -1 -7 -9 -4 -18 7 -21 14 -7 14 6 0 13 -4 16 -10z m18
-40 c3 -11 1 -18 -4 -14 -5 3 -9 12 -9 20 0 20 7 17 13 -6z m-108 -20 c10 -11
16 -20 13 -20 -3 0 -13 9 -23 20 -10 11 -16 20 -13 20 3 0 13 -9 23 -20z"/>
<path d="M796 1481 c20 -19 122 -45 187 -47 66 -3 207 30 207 48 0 5 -91 8
-202 8 -116 0 -198 -4 -192 -9z"/>
<path d="M898 1283 c34 -2 90 -2 125 0 34 2 6 3 -63 3 -69 0 -97 -1 -62 -3z"/>
<path d="M1098 1283 c6 -2 18 -2 25 0 6 3 1 5 -13 5 -14 0 -19 -2 -12 -5z"/>
<path d="M672 530 c0 -14 2 -19 5 -12 2 6 2 18 0 25 -3 6 -5 1 -5 -13z"/>
<path d="M1114 514 c-18 -14 -18 -15 4 -4 12 6 22 13 22 15 0 8 -5 6 -26 -11z"/>
<path d="M442 950 l-22 -9 20 -38 c11 -21 23 -59 26 -86 6 -44 9 -48 28 -42
12 4 45 9 74 12 58 6 53 23 -6 23 -20 0 -31 4 -27 10 3 6 21 10 38 10 28 1 29
2 14 11 -11 6 -30 9 -44 6 -15 -3 -21 -1 -15 5 5 5 19 10 31 11 32 2 25 15
-11 20 l-33 4 33 1 c42 2 32 22 -11 23 -31 1 -31 1 -7 9 22 7 20 8 -14 9 -45
1 -42 10 6 21 32 8 31 8 -12 8 -25 1 -55 -3 -68 -8z"/>
<path d="M1480 1346 c0 -2 8 -10 18 -17 15 -13 16 -12 3 4 -13 16 -21 21 -21
13z"/>
</g>
</svg>
